Coordinates
version=1
nRows=49
nColumns=12
inDegrees=yes

Units are S.I. units (second, meters, Newtons, ...)
Angles are in degrees

endheader
time	SC_y	SC_z	SC_x	AC_y	AC_z	AC_x	GH_y	GH_z	GH_yy	EL_x	PS_y
       0.0              -22.51          26.32          65.11          38.33         -11.81          2.837         -81.63          33.91          179.6          138.9           75.0
   0.01028              -22.51          26.31           65.1          38.33         -11.81          2.838         -81.59           33.9          179.6          138.9           75.0
   0.02055              -22.51          26.31           65.1          38.33          -11.8          2.839         -81.56           33.9          179.6          138.9           75.0
   0.03083              -22.51          26.31          65.09          38.33          -11.8           2.84         -81.52           33.9          179.6          138.9           75.0
   0.04111              -22.51           26.3          65.08          38.33          -11.8          2.842         -81.48           33.9          179.6          138.8           75.0
   0.05138              -22.51           26.3          65.07          38.33          -11.8          2.843         -81.44          33.89          179.6          138.8          75.01
   0.06166              -22.51          26.29          65.05          38.33          -11.8          2.845         -81.39          33.89          179.6          138.8          75.01
   0.07193              -22.51          26.29          65.04          38.33          -11.8          2.846         -81.34          33.89          179.6          138.8          75.01
   0.08221              -22.51          26.29          65.03          38.33          -11.8          2.848         -81.29          33.88          179.5          138.7          75.01
   0.09249              -22.51          26.28          65.02          38.34          -11.8           2.85         -81.24          33.88          179.5          138.7          75.01
    0.1028              -22.51          26.27           65.0          38.34          -11.8          2.852         -81.18          33.87          179.5          138.7          75.01
     0.113              -22.51          26.27          64.99          38.34         -11.79          2.854         -81.11          33.87          179.5          138.7          75.01
    0.1233              -22.51          26.26          64.97          38.34         -11.79          2.857         -81.04          33.86          179.5          138.6          75.02
    0.1336              -22.52          26.26          64.95          38.34         -11.79           2.86         -80.97          33.86          179.5          138.6          75.02
    0.1439              -22.52          26.25          64.93          38.34         -11.79          2.862         -80.89          33.85          179.5          138.5          75.02
    0.1541              -22.52          26.24          64.91          38.35         -11.79          2.865          -80.8          33.85          179.5          138.5          75.02
    0.1644              -22.52          26.23          64.89          38.35         -11.79          2.869          -80.7          33.84          179.4          138.5          75.03
    0.1747              -22.52          26.22          64.86          38.35         -11.78          2.872          -80.6          33.83          179.4          138.4          75.03
     0.185              -22.52          26.21          64.83          38.35         -11.78          2.876         -80.49          33.82          179.4          138.3          75.03
    0.1953              -22.52           26.2           64.8          38.35         -11.78          2.881         -80.36          33.81          179.4          138.3          75.04
    0.2055              -22.53          26.19          64.77          38.36         -11.77          2.886         -80.22           33.8          179.4          138.2          75.04
    0.2158              -22.53          26.17          64.73          38.36         -11.77          2.891         -80.07          33.79          179.3          138.1          75.04
    0.2261              -22.53          26.16          64.69          38.36         -11.77          2.897         -79.91          33.78          179.3          138.1          75.05
    0.2364              -22.53          26.14          64.65          38.37         -11.76          2.903         -79.72          33.77          179.3          138.0          75.05
    0.2466              -22.54          26.12           64.6          38.37         -11.76           2.91         -79.52          33.75          179.2          137.9          75.06
    0.2569              -22.54           26.1          64.54          38.38         -11.75          2.918         -79.29          33.73          179.2          137.7          75.06
    0.2672              -22.55          26.08          64.48          38.38         -11.75          2.927         -79.04          33.72          179.2          137.6          75.07
    0.2775              -22.55          26.05          64.41          38.39         -11.74          2.937         -78.75           33.7          179.1          137.5          75.08
    0.2877              -22.55          26.02          64.33          38.39         -11.73          2.949         -78.42          33.67          179.0          137.3          75.09
     0.298              -22.56          25.99          64.24           38.4         -11.73          2.961         -78.05          33.64          179.0          137.1           75.1
    0.3083              -22.57          25.95          64.14          38.41         -11.72          2.976         -77.63          33.61          178.9          136.9          75.11
    0.3186              -22.57          25.91          64.02          38.42          -11.7          2.993         -77.15          33.58          178.8          136.7          75.12
    0.3288              -22.58          25.86          63.88          38.43         -11.69          3.013         -76.59          33.54          178.7          136.4          75.14
    0.3391              -22.59           25.8          63.72          38.45         -11.68          3.035         -75.94          33.49          178.6          136.1          75.16
    0.3494               -22.6          25.73          63.54          38.46         -11.66          3.062         -75.18          33.43          178.5          135.7          75.18
    0.3597              -22.62          25.65          63.32          38.48         -11.64          3.093         -74.29          33.37          178.3          135.2           75.2
    0.3699              -22.63          25.55          63.06           38.5         -11.62           3.13         -73.22          33.29          178.1          134.7          75.23
    0.3802              -22.65          25.43          62.75          38.53         -11.59          3.175         -71.95           33.2          177.9          134.1          75.27
    0.3905              -22.68          25.29          62.37          38.56         -11.55          3.229         -70.41          33.08          177.7          133.3          75.31
    0.4008              -22.71          25.12          61.91           38.6         -11.51          3.295         -68.52          32.94          177.3          132.4          75.36
    0.4111              -22.74          24.91          61.34          38.65         -11.46          3.376          -66.2          32.77          176.9          131.2          75.42
    0.4213              -22.79          24.64          60.63          38.71         -11.39          3.477          -63.3          32.56          176.4          129.7           75.5
    0.4316              -22.84          24.31          59.74          38.78         -11.31          3.605         -59.65          32.29          175.8          127.9           75.6
    0.4419              -22.91          23.89           58.6          38.88         -11.21          3.768         -55.01          31.95          175.0          125.6          75.73
    0.4522              -23.01          23.35          57.15           39.0         -11.07          3.975         -49.06          31.52          174.0          122.6           75.9
    0.4624              -23.12          22.65          55.29          39.16          -10.9          4.242         -41.44          30.96          172.6          118.8          76.11
    0.4727              -23.27          21.76           52.9          39.36         -10.68          4.583          -31.7          30.24          171.0          113.9          76.37
     0.483              -23.46          20.65          49.91          39.61          -10.4          5.011         -19.45          29.34          168.8          107.8          76.71
    0.4933              -23.69          19.28          46.26          39.92         -10.07          5.533         -4.525          28.25          166.3          100.3          77.12
